<svg xmlns="http://www.w3.org/2000/svg" width="48.602" height="60.752"><defs><style>.prefix__cls-1{fill:#e7ebee}.prefix__cls-3{fill:#b9c4c8}</style></defs><g id="prefix__video-camera_1_" data-name="video-camera (1)" transform="translate(-51.2)"><g id="prefix__Group_1161" data-name="Group 1161" transform="translate(67.4 13.913)"><path id="prefix__Path_10351" d="M187.733 247.467h10.125a4.05 4.05 0 01-4.05 4.05h-2.025a4.05 4.05 0 01-4.05-4.05z" class="prefix__cls-1" data-name="Path 10351" transform="translate(-187.733 -232.017)"/><path id="prefix__Path_10352" d="M384 121.231v4.725l6.578 3.837a1.012 1.012 0 001.523-.875v-10.65a1.012 1.012 0 00-1.523-.875z" class="prefix__cls-1" data-name="Path 10352" transform="translate(-360.712 -117.256)"/></g><path id="prefix__Path_10354" d="M81 103.992a2.025 2.025 0 01-2.025-2.025v-8.1h-.266a8.09 8.09 0 01-15.67 0h-1.281a2.025 2.025 0 00-2.025 2.025v14.175a2.025 2.025 0 002.025 2.025h34.426a2.025 2.025 0 002.025-2.025v-6.075z" class="prefix__cls-1" data-name="Path 10354" transform="translate(-7.521 -82.729)"/><path id="prefix__Path_10356" d="M239.079 93.867H237.8a8.09 8.09 0 01-15.669 0h-.266v8.1a2.025 2.025 0 002.025 2.025h17.21v-8.1a2.025 2.025 0 00-2.021-2.025z" data-name="Path 10356" transform="translate(-150.415 -82.729)" fill="#e3e7f2"/><g id="prefix__Group_1162" data-name="Group 1162" transform="translate(51.2)"><circle id="prefix__Ellipse_678" cx="1.012" cy="1.012" r="1.012" class="prefix__cls-3" data-name="Ellipse 678" transform="translate(24.301 5.063)"/><circle id="prefix__Ellipse_679" cx="1.012" cy="1.012" r="1.012" class="prefix__cls-3" data-name="Ellipse 679" transform="translate(30.376 11.138)"/><path id="prefix__Path_10360" d="M103.41 301.407a1.012 1.012 0 01-.89-1.492l14.18-26.326a1.012 1.012 0 111.783.959L104.3 300.874a1.012 1.012 0 01-.89.533z" class="prefix__cls-3" data-name="Path 10360" transform="translate(-96.323 -240.655)"/><path id="prefix__Path_10361" d="M237.052 301.408a1.012 1.012 0 01-.892-.533l-14.175-26.326a1.012 1.012 0 111.783-.959l14.176 26.326a1.012 1.012 0 01-.891 1.492z" class="prefix__cls-3" data-name="Path 10361" transform="translate(-201.612 -240.656)"/><path id="prefix__Path_10362" d="M222.879 301.418a1.012 1.012 0 01-1.013-1.013V274.08a1.012 1.012 0 112.025 0v26.326a1.012 1.012 0 01-1.012 1.013z" class="prefix__cls-3" data-name="Path 10362" transform="translate(-201.615 -240.666)"/><path id="prefix__Path_10363" d="M383.567 123.428a2.022 2.022 0 01-1.02-.279l-6.577-3.839a1.011 1.011 0 01-.5-.874v-4.725a1.012 1.012 0 01.5-.874l6.577-3.837a2.025 2.025 0 013.046 1.749V121.4a2.034 2.034 0 01-2.026 2.028zm-6.075-5.573l6.075 3.545v-10.65l-6.075 3.544z" class="prefix__cls-3" data-name="Path 10363" transform="translate(-336.991 -95.824)"/><path id="prefix__Path_10364" d="M85.913 18.226a9.113 9.113 0 119.113-9.113 9.113 9.113 0 01-9.113 9.113zm0-16.2A7.088 7.088 0 1093 9.113a7.088 7.088 0 00-7.087-7.088z" class="prefix__cls-3" data-name="Path 10364" transform="translate(-73.762)"/><path id="prefix__Path_10365" d="M222.446 18.226a9.113 9.113 0 119.113-9.113 9.113 9.113 0 01-9.113 9.113zm0-16.2a7.088 7.088 0 107.088 7.088 7.088 7.088 0 00-7.088-7.089z" class="prefix__cls-3" data-name="Path 10365" transform="translate(-194.095)"/><circle id="prefix__Ellipse_680" cx="1.012" cy="1.012" r="1.012" class="prefix__cls-3" data-name="Ellipse 680" transform="translate(24.301 11.138)"/><circle id="prefix__Ellipse_681" cx="1.012" cy="1.012" r="1.012" class="prefix__cls-3" data-name="Ellipse 681" transform="translate(27.338 8.1)"/><circle id="prefix__Ellipse_682" cx="1.012" cy="1.012" r="1.012" class="prefix__cls-3" data-name="Ellipse 682" transform="translate(11.138 8.1)"/><circle id="prefix__Ellipse_683" cx="1.012" cy="1.012" r="1.012" class="prefix__cls-3" data-name="Ellipse 683" transform="translate(30.376 5.063)"/><circle id="prefix__Ellipse_684" cx="1.012" cy="1.012" r="1.012" class="prefix__cls-3" data-name="Ellipse 684" transform="translate(8.1 5.063)"/><circle id="prefix__Ellipse_685" cx="1.012" cy="1.012" r="1.012" class="prefix__cls-3" data-name="Ellipse 685" transform="translate(14.175 11.138)"/><circle id="prefix__Ellipse_686" cx="1.012" cy="1.012" r="1.012" class="prefix__cls-3" data-name="Ellipse 686" transform="translate(8.1 11.138)"/><circle id="prefix__Ellipse_687" cx="1.012" cy="1.012" r="1.012" class="prefix__cls-3" data-name="Ellipse 687" transform="translate(23.288 24.301)"/><circle id="prefix__Ellipse_688" cx="1.012" cy="1.012" r="1.012" class="prefix__cls-3" data-name="Ellipse 688" transform="translate(28.351 24.301)"/><circle id="prefix__Ellipse_689" cx="1.012" cy="1.012" r="1.012" class="prefix__cls-3" data-name="Ellipse 689" transform="translate(33.414 24.301)"/><circle id="prefix__Ellipse_690" cx="1.012" cy="1.012" r="1.012" class="prefix__cls-3" data-name="Ellipse 690" transform="translate(14.175 5.063)"/><path id="prefix__Path_10366" d="M106.017 206.826H94.88a1.012 1.012 0 110-2.025h11.138a1.012 1.012 0 110 2.025z" class="prefix__cls-3" data-name="Path 10366" transform="translate(-88.804 -180.5)"/><path id="prefix__Path_10367" d="M101.967 172.692H94.88a1.012 1.012 0 110-2.025h7.088a1.012 1.012 0 010 2.025z" class="prefix__cls-3" data-name="Path 10367" transform="translate(-88.804 -150.416)"/><path id="prefix__Path_10368" d="M186.287 245.007h-2.025a5.069 5.069 0 01-5.063-5.063 1.012 1.012 0 011.013-1.013h10.125a1.012 1.012 0 011.013 1.013 5.069 5.069 0 01-5.063 5.063zm-4.889-4.05a3.043 3.043 0 002.864 2.025h2.025a3.043 3.043 0 002.864-2.025z" class="prefix__cls-3" data-name="Path 10368" transform="translate(-164.011 -210.581)"/><path id="prefix__Path_10369" d="M88.664 105.584H54.238a3.041 3.041 0 01-3.038-3.038V88.371a3.041 3.041 0 013.038-3.038h1.278a1.012 1.012 0 01.98.759 7.077 7.077 0 0013.709 0 1.012 1.012 0 01.98-.759h.266a1.012 1.012 0 011.013 1.013v8.1a1.013 1.013 0 001.012 1.012h17.213a1.012 1.012 0 011.011 1.013v6.075a3.041 3.041 0 01-3.036 3.038zM54.238 87.358a1.013 1.013 0 00-1.012 1.012v14.175a1.013 1.013 0 001.012 1.012h34.426a1.013 1.013 0 001.012-1.012v-5.062h-16.2a3.041 3.041 0 01-3.038-3.038v-4.4a9.1 9.1 0 01-15.672-2.684z" class="prefix__cls-3" data-name="Path 10369" transform="translate(-51.2 -75.208)"/><path id="prefix__Path_10370" d="M233.584 97.483h-17.213a3.041 3.041 0 01-3.038-3.038v-8.1a1.012 1.012 0 011.013-1.013h.266a1.012 1.012 0 01.98.759 7.077 7.077 0 0013.709 0 1.012 1.012 0 01.98-.759h1.278a3.041 3.041 0 013.038 3.038v8.1a1.012 1.012 0 01-1.013 1.012zm-18.226-7.442v4.4a1.013 1.013 0 001.012 1.012h16.2v-7.082a1.013 1.013 0 00-1.012-1.012h-.529a9.1 9.1 0 01-15.672 2.684z" class="prefix__cls-3" data-name="Path 10370" transform="translate(-194.095 -75.208)"/></g></g></svg>